<svg xmlns="http://www.w3.org/2000/svg" viewBox="0 0 512 512">
  <defs>
    <linearGradient id="grad1" x1="0%" y1="0%" x2="100%" y2="100%">
      <stop offset="0%" style="stop-color:#6366F1;stop-opacity:1" />
      <stop offset="100%" style="stop-color:#8B5CF6;stop-opacity:1" />
    </linearGradient>
    <linearGradient id="grad2" x1="0%" y1="0%" x2="100%" y2="100%">
      <stop offset="0%" style="stop-color:#EC4899;stop-opacity:1" />
      <stop offset="100%" style="stop-color:#F43F5E;stop-opacity:1" />
    </linearGradient>
  </defs>
  
  <!-- Rounded square background -->
  <rect x="32" y="32" width="448" height="448" rx="90" fill="url(#grad1)"/>
  
  <!-- Central AI Agent Hub -->
  <circle cx="256" cy="256" r="70" fill="white" opacity="0.95"/>
  <circle cx="256" cy="256" r="50" fill="url(#grad2)"/>
  
  <!-- Agent icon in center -->
  <circle cx="256" cy="245" r="18" fill="white"/>
  <rect x="238" y="265" width="36" height="20" rx="10" fill="white"/>
  
  <!-- Multimodal Input Nodes (representing different data types) -->
  <!-- Text/Clinical Notes -->
  <rect x="120" y="140" width="50" height="50" rx="10" fill="white" opacity="0.9"/>
  <rect x="130" y="155" width="30" height="4" rx="2" fill="#6366F1"/>
  <rect x="130" y="165" width="20" height="4" rx="2" fill="#6366F1"/>
  <rect x="130" y="175" width="25" height="4" rx="2" fill="#6366F1"/>
  
  <!-- Images/Radiology -->
  <circle cx="390" cy="165" r="30" fill="white" opacity="0.9"/>
  <rect x="375" y="155" width="30" height="20" rx="4" fill="#6366F1"/>
  <circle cx="390" cy="160" r="3" fill="white"/>
  
  <!-- Genomics/Data -->
  <rect x="342" y="320" width="50" height="50" rx="10" fill="white" opacity="0.9"/>
  <path d="M 355 335 L 365 345 L 355 355 M 367 335 L 377 345 L 367 355" stroke="#6366F1" stroke-width="3" fill="none"/>
  
  <!-- Labs/Biomarkers -->
  <circle cx="145" cy="347" r="30" fill="white" opacity="0.9"/>
  <rect x="137" y="340" width="4" height="20" rx="2" fill="#6366F1"/>
  <rect x="143" y="335" width="4" height="25" rx="2" fill="#6366F1"/>
  <rect x="149" y="342" width="4" height="18" rx="2" fill="#6366F1"/>
  
  <!-- Connection lines (multimodal fusion) -->
  <line x1="167" y1="165" x2="198" y2="220" stroke="white" stroke-width="4" opacity="0.7"/>
  <line x1="363" y1="182" x2="310" y2="218" stroke="white" stroke-width="4" opacity="0.7"/>
  <line x1="367" y1="335" x2="310" y2="290" stroke="white" stroke-width="4" opacity="0.7"/>
  <line x1="172" y1="340" x2="198" y2="290" stroke="white" stroke-width="4" opacity="0.7"/>
  
  <!-- Medical cross overlay (subtle) -->
  <line x1="256" y1="110" x2="256" y2="135" stroke="white" stroke-width="6" opacity="0.6" stroke-linecap="round"/>
  <line x1="243" y1="122" x2="269" y2="122" stroke="white" stroke-width="6" opacity="0.6" stroke-linecap="round"/>
  
  <!-- Decision arrows (output) -->
  <path d="M 256 335 L 256 385" stroke="white" stroke-width="6" opacity="0.8" stroke-linecap="round"/>
  <path d="M 246 375 L 256 385 L 266 375" stroke="white" stroke-width="6" fill="none" opacity="0.8" stroke-linecap="round"/>
</svg>
