<svg xmlns="http://www.w3.org/2000/svg" viewBox="0 0 512 512">
  <defs>
    <linearGradient id="grad1" x1="0%" y1="0%" x2="100%" y2="100%">
      <stop offset="0%" style="stop-color:#4F46E5;stop-opacity:1" />
      <stop offset="100%" style="stop-color:#06B6D4;stop-opacity:1" />
    </linearGradient>
  </defs>
  
  <!-- Rounded square background -->
  <rect x="32" y="32" width="448" height="448" rx="80" fill="url(#grad1)"/>
  
  <!-- Circuit Brain Design - Left hemisphere -->
  <path d="M 180 180 Q 150 220 160 260 Q 170 300 180 340" 
        stroke="white" stroke-width="8" fill="none" stroke-linecap="round"/>
  
  <!-- Circuit Brain Design - Right hemisphere -->
  <path d="M 332 180 Q 362 220 352 260 Q 342 300 332 340" 
        stroke="white" stroke-width="8" fill="none" stroke-linecap="round"/>
  
  <!-- Top connecting arch -->
  <path d="M 180 180 Q 256 140 332 180" 
        stroke="white" stroke-width="8" fill="none" stroke-linecap="round"/>
  
  <!-- Central processing unit symbol -->
  <rect x="226" y="226" width="60" height="60" rx="8" fill="white" opacity="0.95"/>
  <rect x="236" y="236" width="40" height="40" rx="4" fill="#4F46E5"/>
  
  <!-- Circuit connections - Input nodes -->
  <circle cx="140" cy="200" r="12" fill="white"/>
  <circle cx="140" cy="256" r="12" fill="white"/>
  <circle cx="140" cy="312" r="12" fill="white"/>
  
  <!-- Circuit connections - Output nodes -->
  <circle cx="372" cy="200" r="12" fill="white"/>
  <circle cx="372" cy="256" r="12" fill="white"/>
  <circle cx="372" cy="312" r="12" fill="white"/>
  
  <!-- Connection lines to CPU -->
  <line x1="152" y1="200" x2="226" y2="240" stroke="white" stroke-width="3" opacity="0.8"/>
  <line x1="152" y1="256" x2="226" y2="256" stroke="white" stroke-width="3" opacity="0.8"/>
  <line x1="152" y1="312" x2="226" y2="272" stroke="white" stroke-width="3" opacity="0.8"/>
  
  <line x1="286" y1="240" x2="360" y2="200" stroke="white" stroke-width="3" opacity="0.8"/>
  <line x1="286" y1="256" x2="360" y2="256" stroke="white" stroke-width="3" opacity="0.8"/>
  <line x1="286" y1="272" x2="360" y2="312" stroke="white" stroke-width="3" opacity="0.8"/>
  
  <!-- Medical cross symbol in center -->
  <line x1="256" y1="246" x2="256" y2="266" stroke="white" stroke-width="4" stroke-linecap="round"/>
  <line x1="246" y1="256" x2="266" y2="256" stroke="white" stroke-width="4" stroke-linecap="round"/>
  
  <!-- Data flow indicators (small dots) -->
  <circle cx="190" cy="220" r="4" fill="white" opacity="0.7"/>
  <circle cx="200" cy="256" r="4" fill="white" opacity="0.7"/>
  <circle cx="190" cy="292" r="4" fill="white" opacity="0.7"/>
  
  <circle cx="322" cy="220" r="4" fill="white" opacity="0.7"/>
  <circle cx="312" cy="256" r="4" fill="white" opacity="0.7"/>
  <circle cx="322" cy="292" r="4" fill="white" opacity="0.7"/>
</svg>
