<svg xmlns="http://www.w3.org/2000/svg" viewBox="0 0 1200 630">
  <defs>
    <linearGradient id="bg3" x1="0%" y1="0%" x2="100%" y2="100%">
      <stop offset="0%" style="stop-color:#10B981;stop-opacity:1" />
      <stop offset="100%" style="stop-color:#059669;stop-opacity:1" />
    </linearGradient>
  </defs>
  
  <rect width="1200" height="630" fill="url(#bg3)"/>
  
  <!-- Central server/hub -->
  <circle cx="600" cy="315" r="60" fill="white" stroke="#059669" stroke-width="6"/>
  <path d="M 580 295 L 600 315 L 620 295" stroke="#059669" stroke-width="8" fill="none" stroke-linecap="round"/>
  
  <!-- Distributed nodes (hospitals/devices) -->
  <circle cx="350" cy="200" r="40" fill="white" stroke="white" stroke-width="4" opacity="0.9"/>
  <circle cx="850" cy="200" r="40" fill="white" stroke="white" stroke-width="4" opacity="0.9"/>
  <circle cx="350" cy="430" r="40" fill="white" stroke="white" stroke-width="4" opacity="0.9"/>
  <circle cx="850" cy="430" r="40" fill="white" stroke="white" stroke-width="4" opacity="0.9"/>
  
  <!-- Medical cross in nodes -->
  <rect x="340" y="192" width="20" height="6" fill="#10B981" rx="2"/>
  <rect x="347" y="185" width="6" height="20" fill="#10B981" rx="2"/>
  
  <rect x="840" y="192" width="20" height="6" fill="#10B981" rx="2"/>
  <rect x="847" y="185" width="6" height="20" fill="#10B981" rx="2"/>
  
  <rect x="340" y="422" width="20" height="6" fill="#10B981" rx="2"/>
  <rect x="347" y="415" width="6" height="20" fill="#10B981" rx="2"/>
  
  <rect x="840" y="422" width="20" height="6" fill="#10B981" rx="2"/>
  <rect x="847" y="415" width="6" height="20" fill="#10B981" rx="2"/>
  
  <!-- Connection lines with encryption symbols -->
  <line x1="385" y1="215" x2="545" y2="285" stroke="white" stroke-width="4" stroke-dasharray="10,5" opacity="0.7"/>
  <line x1="815" y1="215" x2="655" y2="285" stroke="white" stroke-width="4" stroke-dasharray="10,5" opacity="0.7"/>
  <line x1="385" y1="415" x2="545" y2="345" stroke="white" stroke-width="4" stroke-dasharray="10,5" opacity="0.7"/>
  <line x1="815" y1="415" x2="655" y2="345" stroke="white" stroke-width="4" stroke-dasharray="10,5" opacity="0.7"/>
  
  <!-- Lock icons on lines -->
  <circle cx="465" cy="250" r="16" fill="white"/>
  <rect x="460" y="250" width="10" height="8" rx="2" fill="#10B981"/>
  <path d="M 462 250 Q 462 246 465 246 Q 468 246 468 250" stroke="#10B981" stroke-width="2" fill="none"/>
  
  <!-- Title -->
  <text x="600" y="80" font-family="Arial, sans-serif" font-size="44" font-weight="bold" fill="white" text-anchor="middle">Privacy-Preserving ML</text>
  <text x="600" y="130" font-family="Arial, sans-serif" font-size="32" fill="white" text-anchor="middle" opacity="0.9">Federated Learning</text>
</svg>
